<svg width="387" height="387" viewBox="0 0 387 387" fill="none" xmlns="http://www.w3.org/2000/svg">
<path fill-rule="evenodd" clip-rule="evenodd" d="M143.688 43.7645V130.271H237.604V43.5824C224.577 43.2578 210.065 43.0625 194 43.0625C175.121 43.0625 158.386 43.3322 143.688 43.7645ZM87.5759 46.7116C97.0954 45.9381 109.038 45.1492 123.561 44.5037V130.272H44.222C44.9107 112.675 45.8206 98.5243 46.71 87.5774C48.502 65.5214 65.5199 48.5036 87.5759 46.7116ZM43.5824 150.396H123.563V237.604H43.5824C43.2578 224.578 43.0625 210.065 43.0625 194C43.0625 177.935 43.2578 163.422 43.5824 150.396ZM143.688 237.604V150.396H344.418C344.742 163.423 344.938 177.935 344.938 194C344.938 210.065 344.742 224.578 344.418 237.604H143.688ZM44.222 257.729H123.561V343.497C109.038 342.851 97.0953 342.062 87.5759 341.289C65.5199 339.497 48.502 322.479 46.71 300.423C45.8206 289.476 44.9107 275.326 44.222 257.729ZM143.688 344.236V257.729H237.604V344.418C224.578 344.742 210.065 344.938 194 344.938C175.121 344.938 158.386 344.668 143.688 344.236ZM257.729 130.263V44.2155C275.325 44.9041 289.476 45.8141 300.423 46.7034C322.479 48.4954 339.497 65.5133 341.289 87.5694C342.178 98.5163 343.088 112.667 343.777 130.263H257.729ZM257.729 343.777C275.325 343.088 289.476 342.178 300.423 341.289C322.479 339.497 339.497 322.479 341.289 300.423C342.178 289.476 343.088 275.326 343.777 257.729H257.729V343.777Z" fill="url(#paint0_linear_167_660)"/>
<defs>
<linearGradient id="paint0_linear_167_660" x1="371.1" y1="408.875" x2="-36.0891" y2="119.638" gradientUnits="userSpaceOnUse">
<stop stop-color="#FFD600"/>
<stop offset="1" stop-color="#FF007A"/>
</linearGradient>
</defs>
</svg>
